# xmcd CD database file
#
# Track frame offsets:
#	182
#	17980
#	53372
#	69005
#	86277
#	110752
#	135500
#	159417
#	176995
#	200395
#
# Disc length: 2909 seconds
#
# Revision: 3
# Processed by: cddbd v1.5.2PL0 Copyright (c) Steve Scherf et al.
# Submitted via: CDex 1.70beta2
#
DISCID=790b5b0a
DTITLE=The Go Jazz All Stars - Live In Japan
DYEAR=1991
DGENRE=Jazz
TTITLE0=Lip  Service
TTITLE1=Mood Swing
TTITLE2=It Should Have Been Me
TTITLE3=Yeah, Yeah
TTITLE4=Let's Make A Deal
TTITLE5=Good Bye
TTITLE6=The Language Of The Blues
TTITLE7=Too Hot To Touch
TTITLE8=Georgia
TTITLE9=I Love The Life I Live
EXTD=YEAR: 1991
EXTT0=
EXTT1=
EXTT2=
EXTT3=
EXTT4=
EXTT5=
EXTT6=
EXTT7=
EXTT8=
EXTT9=
PLAYORDER=
